<svg xmlns="http://www.w3.org/2000/svg" version="1.1" xmlns:xlink="http://www.w3.org/1999/xlink" xmlns:svgjs="http://svgjs.dev/svgjs" width="1440" height="560" preserveAspectRatio="none" viewBox="0 0 1440 560"><g mask="url(&quot;#SvgjsMask4465&quot;)" fill="none"><rect width="1440" height="560" x="0" y="0" fill="url(&quot;#SvgjsRadialGradient4466&quot;)"></rect><path d="M-78.29 371.83L-78.29 371.83" stroke="rgba(15, 55, 131, 0.51)" stroke-width="1.5"></path><path d="M-78.29 371.83L39.28 349.15" stroke="rgba(15, 55, 131, 0.51)" stroke-width="1.5"></path><path d="M-78.29 371.83L-103.06 552.92" stroke="rgba(15, 55, 131, 0.51)" stroke-width="1.5"></path><path d="M-78.29 371.83L65 536.47" stroke="rgba(15, 55, 131, 0.51)" stroke-width="1.5"></path><path d="M-78.29 371.83L-74.91 671.41" stroke="rgba(15, 55, 131, 0.51)" stroke-width="1.5"></path><path d="M-78.29 371.83L224.49 360.81" stroke="rgba(15, 55, 131, 0.51)" stroke-width="1.5"></path><path d="M-103.06 552.92L-103.06 552.92" stroke="rgba(15, 55, 131, 0.51)" stroke-width="1.5"></path><path d="M-103.06 552.92L-74.91 671.41" stroke="rgba(15, 55, 131, 0.51)" stroke-width="1.5"></path><path d="M-103.06 552.92L65 536.47" stroke="rgba(15, 55, 131, 0.51)" stroke-width="1.5"></path><path d="M-74.91 671.41L-74.91 671.41" stroke="rgba(15, 55, 131, 0.51)" stroke-width="1.5"></path><path d="M-74.91 671.41L90.81 660.99" stroke="rgba(15, 55, 131, 0.51)" stroke-width="1.5"></path><path d="M-74.91 671.41L65 536.47" stroke="rgba(15, 55, 131, 0.51)" stroke-width="1.5"></path><path d="M39.28 349.15L39.28 349.15" stroke="rgba(15, 55, 131, 0.51)" stroke-width="1.5"></path><path d="M39.28 349.15L224.49 360.81" stroke="rgba(15, 55, 131, 0.51)" stroke-width="1.5"></path><path d="M39.28 349.15L65 536.47" stroke="rgba(15, 55, 131, 0.51)" stroke-width="1.5"></path><path d="M39.28 349.15L-103.06 552.92" stroke="rgba(15, 55, 131, 0.51)" stroke-width="1.5"></path><path d="M39.28 349.15L237.46 535.71" stroke="rgba(15, 55, 131, 0.51)" stroke-width="1.5"></path><path d="M65 536.47L65 536.47" stroke="rgba(15, 55, 131, 0.51)" stroke-width="1.5"></path><path d="M65 536.47L90.81 660.99" stroke="rgba(15, 55, 131, 0.51)" stroke-width="1.5"></path><path d="M65 536.47L237.46 535.71" stroke="rgba(15, 55, 131, 0.51)" stroke-width="1.5"></path><path d="M90.81 660.99L90.81 660.99" stroke="rgba(15, 55, 131, 0.51)" stroke-width="1.5"></path><path d="M90.81 660.99L252.24 655.39" stroke="rgba(15, 55, 131, 0.51)" stroke-width="1.5"></path><path d="M90.81 660.99L237.46 535.71" stroke="rgba(15, 55, 131, 0.51)" stroke-width="1.5"></path><path d="M224.49 360.81L224.49 360.81" stroke="rgba(15, 55, 131, 0.51)" stroke-width="1.5"></path><path d="M224.49 360.81L369.66 374.61" stroke="rgba(15, 55, 131, 0.51)" stroke-width="1.5"></path><path d="M224.49 360.81L237.46 535.71" stroke="rgba(15, 55, 131, 0.51)" stroke-width="1.5"></path><path d="M237.46 535.71L237.46 535.71" stroke="rgba(15, 55, 131, 0.51)" stroke-width="1.5"></path><path d="M237.46 535.71L252.24 655.39" stroke="rgba(15, 55, 131, 0.51)" stroke-width="1.5"></path><path d="M237.46 535.71L402.89 537.08" stroke="rgba(15, 55, 131, 0.51)" stroke-width="1.5"></path><path d="M252.24 655.39L252.24 655.39" stroke="rgba(15, 55, 131, 0.51)" stroke-width="1.5"></path><path d="M252.24 655.39L388.14 689.54" stroke="rgba(15, 55, 131, 0.51)" stroke-width="1.5"></path><path d="M252.24 655.39L402.89 537.08" stroke="rgba(15, 55, 131, 0.51)" stroke-width="1.5"></path><path d="M252.24 655.39L65 536.47" stroke="rgba(15, 55, 131, 0.51)" stroke-width="1.5"></path><path d="M369.66 374.61L369.66 374.61" stroke="rgba(15, 55, 131, 0.51)" stroke-width="1.5"></path><path d="M369.66 374.61L514.19 348.26" stroke="rgba(15, 55, 131, 0.51)" stroke-width="1.5"></path><path d="M369.66 374.61L402.89 537.08" stroke="rgba(15, 55, 131, 0.51)" stroke-width="1.5"></path><path d="M369.66 374.61L237.46 535.71" stroke="rgba(15, 55, 131, 0.51)" stroke-width="1.5"></path><path d="M369.66 374.61L527.72 528.66" stroke="rgba(15, 55, 131, 0.51)" stroke-width="1.5"></path><path d="M369.66 374.61L639.76 507.3" stroke="rgba(15, 55, 131, 0.51)" stroke-width="1.5"></path><path d="M402.89 537.08L402.89 537.08" stroke="rgba(15, 55, 131, 0.51)" stroke-width="1.5"></path><path d="M402.89 537.08L527.72 528.66" stroke="rgba(15, 55, 131, 0.51)" stroke-width="1.5"></path><path d="M402.89 537.08L388.14 689.54" stroke="rgba(15, 55, 131, 0.51)" stroke-width="1.5"></path><path d="M388.14 689.54L388.14 689.54" stroke="rgba(15, 55, 131, 0.51)" stroke-width="1.5"></path><path d="M388.14 689.54L543.57 682.49" stroke="rgba(15, 55, 131, 0.51)" stroke-width="1.5"></path><path d="M388.14 689.54L527.72 528.66" stroke="rgba(15, 55, 131, 0.51)" stroke-width="1.5"></path><path d="M388.14 689.54L237.46 535.71" stroke="rgba(15, 55, 131, 0.51)" stroke-width="1.5"></path><path d="M388.14 689.54L681.93 666.17" stroke="rgba(15, 55, 131, 0.51)" stroke-width="1.5"></path><path d="M514.19 348.26L514.19 348.26" stroke="rgba(15, 55, 131, 0.51)" stroke-width="1.5"></path><path d="M527.72 528.66L527.72 528.66" stroke="rgba(15, 55, 131, 0.51)" stroke-width="1.5"></path><path d="M527.72 528.66L639.76 507.3" stroke="rgba(15, 55, 131, 0.51)" stroke-width="1.5"></path><path d="M543.57 682.49L543.57 682.49" stroke="rgba(15, 55, 131, 0.51)" stroke-width="1.5"></path><path d="M543.57 682.49L681.93 666.17" stroke="rgba(15, 55, 131, 0.51)" stroke-width="1.5"></path><path d="M543.57 682.49L527.72 528.66" stroke="rgba(15, 55, 131, 0.51)" stroke-width="1.5"></path><path d="M674.81 255.34L674.81 255.34" stroke="rgba(15, 55, 131, 0.51)" stroke-width="1.5"></path><path d="M674.81 255.34L685.19 369.86" stroke="rgba(15, 55, 131, 0.51)" stroke-width="1.5"></path><path d="M674.81 255.34L846.38 248.89" stroke="rgba(15, 55, 131, 0.51)" stroke-width="1.5"></path><path d="M674.81 255.34L514.19 348.26" stroke="rgba(15, 55, 131, 0.51)" stroke-width="1.5"></path><path d="M674.81 255.34L850.56 381.91" stroke="rgba(15, 55, 131, 0.51)" stroke-width="1.5"></path><path d="M674.81 255.34L639.76 507.3" stroke="rgba(15, 55, 131, 0.51)" stroke-width="1.5"></path><path d="M685.19 369.86L685.19 369.86" stroke="rgba(15, 55, 131, 0.51)" stroke-width="1.5"></path><path d="M685.19 369.86L639.76 507.3" stroke="rgba(15, 55, 131, 0.51)" stroke-width="1.5"></path><path d="M685.19 369.86L850.56 381.91" stroke="rgba(15, 55, 131, 0.51)" stroke-width="1.5"></path><path d="M685.19 369.86L514.19 348.26" stroke="rgba(15, 55, 131, 0.51)" stroke-width="1.5"></path><path d="M685.19 369.86L846.38 248.89" stroke="rgba(15, 55, 131, 0.51)" stroke-width="1.5"></path><path d="M639.76 507.3L639.76 507.3" stroke="rgba(15, 55, 131, 0.51)" stroke-width="1.5"></path><path d="M639.76 507.3L681.93 666.17" stroke="rgba(15, 55, 131, 0.51)" stroke-width="1.5"></path><path d="M681.93 666.17L681.93 666.17" stroke="rgba(15, 55, 131, 0.51)" stroke-width="1.5"></path><path d="M681.93 666.17L805.75 656.19" stroke="rgba(15, 55, 131, 0.51)" stroke-width="1.5"></path><path d="M681.93 666.17L801.33 549.13" stroke="rgba(15, 55, 131, 0.51)" stroke-width="1.5"></path><path d="M681.93 666.17L527.72 528.66" stroke="rgba(15, 55, 131, 0.51)" stroke-width="1.5"></path><path d="M846.38 248.89L846.38 248.89" stroke="rgba(15, 55, 131, 0.51)" stroke-width="1.5"></path><path d="M846.38 248.89L951.98 235.8" stroke="rgba(15, 55, 131, 0.51)" stroke-width="1.5"></path><path d="M846.38 248.89L850.56 381.91" stroke="rgba(15, 55, 131, 0.51)" stroke-width="1.5"></path><path d="M846.38 248.89L955.16 384.73" stroke="rgba(15, 55, 131, 0.51)" stroke-width="1.5"></path><path d="M850.56 381.91L850.56 381.91" stroke="rgba(15, 55, 131, 0.51)" stroke-width="1.5"></path><path d="M850.56 381.91L955.16 384.73" stroke="rgba(15, 55, 131, 0.51)" stroke-width="1.5"></path><path d="M801.33 549.13L801.33 549.13" stroke="rgba(15, 55, 131, 0.51)" stroke-width="1.5"></path><path d="M801.33 549.13L805.75 656.19" stroke="rgba(15, 55, 131, 0.51)" stroke-width="1.5"></path><path d="M801.33 549.13L949.71 520.55" stroke="rgba(15, 55, 131, 0.51)" stroke-width="1.5"></path><path d="M801.33 549.13L639.76 507.3" stroke="rgba(15, 55, 131, 0.51)" stroke-width="1.5"></path><path d="M805.75 656.19L805.75 656.19" stroke="rgba(15, 55, 131, 0.51)" stroke-width="1.5"></path><path d="M805.75 656.19L989.59 695.77" stroke="rgba(15, 55, 131, 0.51)" stroke-width="1.5"></path><path d="M805.75 656.19L949.71 520.55" stroke="rgba(15, 55, 131, 0.51)" stroke-width="1.5"></path><path d="M805.75 656.19L639.76 507.3" stroke="rgba(15, 55, 131, 0.51)" stroke-width="1.5"></path><path d="M999.15 -72.67L999.15 -72.67" stroke="rgba(15, 55, 131, 0.51)" stroke-width="1.5"></path><path d="M999.15 -72.67L1150.45 -86.87" stroke="rgba(15, 55, 131, 0.51)" stroke-width="1.5"></path><path d="M999.15 -72.67L967.88 85.65" stroke="rgba(15, 55, 131, 0.51)" stroke-width="1.5"></path><path d="M999.15 -72.67L1106.97 60.1" stroke="rgba(15, 55, 131, 0.51)" stroke-width="1.5"></path><path d="M967.88 85.65L967.88 85.65" stroke="rgba(15, 55, 131, 0.51)" stroke-width="1.5"></path><path d="M967.88 85.65L1106.97 60.1" stroke="rgba(15, 55, 131, 0.51)" stroke-width="1.5"></path><path d="M951.98 235.8L951.98 235.8" stroke="rgba(15, 55, 131, 0.51)" stroke-width="1.5"></path><path d="M951.98 235.8L955.16 384.73" stroke="rgba(15, 55, 131, 0.51)" stroke-width="1.5"></path><path d="M951.98 235.8L967.88 85.65" stroke="rgba(15, 55, 131, 0.51)" stroke-width="1.5"></path><path d="M951.98 235.8L1114.76 228.76" stroke="rgba(15, 55, 131, 0.51)" stroke-width="1.5"></path><path d="M955.16 384.73L955.16 384.73" stroke="rgba(15, 55, 131, 0.51)" stroke-width="1.5"></path><path d="M955.16 384.73L949.71 520.55" stroke="rgba(15, 55, 131, 0.51)" stroke-width="1.5"></path><path d="M949.71 520.55L949.71 520.55" stroke="rgba(15, 55, 131, 0.51)" stroke-width="1.5"></path><path d="M949.71 520.55L850.56 381.91" stroke="rgba(15, 55, 131, 0.51)" stroke-width="1.5"></path><path d="M949.71 520.55L1120.32 540.63" stroke="rgba(15, 55, 131, 0.51)" stroke-width="1.5"></path><path d="M949.71 520.55L989.59 695.77" stroke="rgba(15, 55, 131, 0.51)" stroke-width="1.5"></path><path d="M989.59 695.77L989.59 695.77" stroke="rgba(15, 55, 131, 0.51)" stroke-width="1.5"></path><path d="M989.59 695.77L1152.76 661.69" stroke="rgba(15, 55, 131, 0.51)" stroke-width="1.5"></path><path d="M989.59 695.77L1120.32 540.63" stroke="rgba(15, 55, 131, 0.51)" stroke-width="1.5"></path><path d="M989.59 695.77L801.33 549.13" stroke="rgba(15, 55, 131, 0.51)" stroke-width="1.5"></path><path d="M989.59 695.77L1269.07 708.81" stroke="rgba(15, 55, 131, 0.51)" stroke-width="1.5"></path><path d="M1150.45 -86.87L1150.45 -86.87" stroke="rgba(15, 55, 131, 0.51)" stroke-width="1.5"></path><path d="M1150.45 -86.87L1248.14 -73.52" stroke="rgba(15, 55, 131, 0.51)" stroke-width="1.5"></path><path d="M1150.45 -86.87L1106.97 60.1" stroke="rgba(15, 55, 131, 0.51)" stroke-width="1.5"></path><path d="M1150.45 -86.87L1264.5 53.38" stroke="rgba(15, 55, 131, 0.51)" stroke-width="1.5"></path><path d="M1150.45 -86.87L967.88 85.65" stroke="rgba(15, 55, 131, 0.51)" stroke-width="1.5"></path><path d="M1106.97 60.1L1106.97 60.1" stroke="rgba(15, 55, 131, 0.51)" stroke-width="1.5"></path><path d="M1106.97 60.1L1264.5 53.38" stroke="rgba(15, 55, 131, 0.51)" stroke-width="1.5"></path><path d="M1106.97 60.1L1114.76 228.76" stroke="rgba(15, 55, 131, 0.51)" stroke-width="1.5"></path><path d="M1106.97 60.1L1248.14 -73.52" stroke="rgba(15, 55, 131, 0.51)" stroke-width="1.5"></path><path d="M1114.76 228.76L1114.76 228.76" stroke="rgba(15, 55, 131, 0.51)" stroke-width="1.5"></path><path d="M1114.76 228.76L1153.77 348.07" stroke="rgba(15, 55, 131, 0.51)" stroke-width="1.5"></path><path d="M1114.76 228.76L1274.54 338.74" stroke="rgba(15, 55, 131, 0.51)" stroke-width="1.5"></path><path d="M1114.76 228.76L967.88 85.65" stroke="rgba(15, 55, 131, 0.51)" stroke-width="1.5"></path><path d="M1114.76 228.76L955.16 384.73" stroke="rgba(15, 55, 131, 0.51)" stroke-width="1.5"></path><path d="M1153.77 348.07L1153.77 348.07" stroke="rgba(15, 55, 131, 0.51)" stroke-width="1.5"></path><path d="M1153.77 348.07L1274.54 338.74" stroke="rgba(15, 55, 131, 0.51)" stroke-width="1.5"></path><path d="M1120.32 540.63L1120.32 540.63" stroke="rgba(15, 55, 131, 0.51)" stroke-width="1.5"></path><path d="M1120.32 540.63L1152.76 661.69" stroke="rgba(15, 55, 131, 0.51)" stroke-width="1.5"></path><path d="M1120.32 540.63L1283.76 542.33" stroke="rgba(15, 55, 131, 0.51)" stroke-width="1.5"></path><path d="M1152.76 661.69L1152.76 661.69" stroke="rgba(15, 55, 131, 0.51)" stroke-width="1.5"></path><path d="M1152.76 661.69L1269.07 708.81" stroke="rgba(15, 55, 131, 0.51)" stroke-width="1.5"></path><path d="M1248.14 -73.52L1248.14 -73.52" stroke="rgba(15, 55, 131, 0.51)" stroke-width="1.5"></path><path d="M1248.14 -73.52L1264.5 53.38" stroke="rgba(15, 55, 131, 0.51)" stroke-width="1.5"></path><path d="M1248.14 -73.52L1404.12 -109.84" stroke="rgba(15, 55, 131, 0.51)" stroke-width="1.5"></path><path d="M1264.5 53.38L1264.5 53.38" stroke="rgba(15, 55, 131, 0.51)" stroke-width="1.5"></path><path d="M1264.5 53.38L1394.2 53.23" stroke="rgba(15, 55, 131, 0.51)" stroke-width="1.5"></path><path d="M1264.5 53.38L1404.12 -109.84" stroke="rgba(15, 55, 131, 0.51)" stroke-width="1.5"></path><path d="M1274.54 338.74L1274.54 338.74" stroke="rgba(15, 55, 131, 0.51)" stroke-width="1.5"></path><path d="M1274.54 338.74L1401.67 257.09" stroke="rgba(15, 55, 131, 0.51)" stroke-width="1.5"></path><path d="M1283.76 542.33L1283.76 542.33" stroke="rgba(15, 55, 131, 0.51)" stroke-width="1.5"></path><path d="M1283.76 542.33L1388.67 488.84" stroke="rgba(15, 55, 131, 0.51)" stroke-width="1.5"></path><path d="M1283.76 542.33L1269.07 708.81" stroke="rgba(15, 55, 131, 0.51)" stroke-width="1.5"></path><path d="M1269.07 708.81L1269.07 708.81" stroke="rgba(15, 55, 131, 0.51)" stroke-width="1.5"></path><path d="M1269.07 708.81L1424.73 651.72" stroke="rgba(15, 55, 131, 0.51)" stroke-width="1.5"></path><path d="M1269.07 708.81L1120.32 540.63" stroke="rgba(15, 55, 131, 0.51)" stroke-width="1.5"></path><path d="M1404.12 -109.84L1404.12 -109.84" stroke="rgba(15, 55, 131, 0.51)" stroke-width="1.5"></path><path d="M1404.12 -109.84L1394.2 53.23" stroke="rgba(15, 55, 131, 0.51)" stroke-width="1.5"></path><path d="M1394.2 53.23L1394.2 53.23" stroke="rgba(15, 55, 131, 0.51)" stroke-width="1.5"></path><path d="M1394.2 53.23L1248.14 -73.52" stroke="rgba(15, 55, 131, 0.51)" stroke-width="1.5"></path><path d="M1394.2 53.23L1591.45 67.13" stroke="rgba(15, 55, 131, 0.51)" stroke-width="1.5"></path><path d="M1394.2 53.23L1401.67 257.09" stroke="rgba(15, 55, 131, 0.51)" stroke-width="1.5"></path><path d="M1394.2 53.23L1596.64 -53.21" stroke="rgba(15, 55, 131, 0.51)" stroke-width="1.5"></path><path d="M1401.67 257.09L1401.67 257.09" stroke="rgba(15, 55, 131, 0.51)" stroke-width="1.5"></path><path d="M1401.67 257.09L1436.29 384.14" stroke="rgba(15, 55, 131, 0.51)" stroke-width="1.5"></path><path d="M1401.67 257.09L1568.73 223.94" stroke="rgba(15, 55, 131, 0.51)" stroke-width="1.5"></path><path d="M1401.67 257.09L1557.7 343.36" stroke="rgba(15, 55, 131, 0.51)" stroke-width="1.5"></path><path d="M1401.67 257.09L1388.67 488.84" stroke="rgba(15, 55, 131, 0.51)" stroke-width="1.5"></path><path d="M1436.29 384.14L1436.29 384.14" stroke="rgba(15, 55, 131, 0.51)" stroke-width="1.5"></path><path d="M1436.29 384.14L1388.67 488.84" stroke="rgba(15, 55, 131, 0.51)" stroke-width="1.5"></path><path d="M1436.29 384.14L1557.7 343.36" stroke="rgba(15, 55, 131, 0.51)" stroke-width="1.5"></path><path d="M1436.29 384.14L1274.54 338.74" stroke="rgba(15, 55, 131, 0.51)" stroke-width="1.5"></path><path d="M1388.67 488.84L1388.67 488.84" stroke="rgba(15, 55, 131, 0.51)" stroke-width="1.5"></path><path d="M1388.67 488.84L1424.73 651.72" stroke="rgba(15, 55, 131, 0.51)" stroke-width="1.5"></path><path d="M1388.67 488.84L1564.77 532.44" stroke="rgba(15, 55, 131, 0.51)" stroke-width="1.5"></path><path d="M1424.73 651.72L1424.73 651.72" stroke="rgba(15, 55, 131, 0.51)" stroke-width="1.5"></path><path d="M1424.73 651.72L1572.4 695.82" stroke="rgba(15, 55, 131, 0.51)" stroke-width="1.5"></path><path d="M1596.64 -53.21L1596.64 -53.21" stroke="rgba(15, 55, 131, 0.51)" stroke-width="1.5"></path><path d="M1596.64 -53.21L1591.45 67.13" stroke="rgba(15, 55, 131, 0.51)" stroke-width="1.5"></path><path d="M1596.64 -53.21L1404.12 -109.84" stroke="rgba(15, 55, 131, 0.51)" stroke-width="1.5"></path><path d="M1596.64 -53.21L1568.73 223.94" stroke="rgba(15, 55, 131, 0.51)" stroke-width="1.5"></path><path d="M1596.64 -53.21L1264.5 53.38" stroke="rgba(15, 55, 131, 0.51)" stroke-width="1.5"></path><path d="M1591.45 67.13L1591.45 67.13" stroke="rgba(15, 55, 131, 0.51)" stroke-width="1.5"></path><path d="M1591.45 67.13L1568.73 223.94" stroke="rgba(15, 55, 131, 0.51)" stroke-width="1.5"></path><path d="M1568.73 223.94L1568.73 223.94" stroke="rgba(15, 55, 131, 0.51)" stroke-width="1.5"></path><path d="M1568.73 223.94L1557.7 343.36" stroke="rgba(15, 55, 131, 0.51)" stroke-width="1.5"></path><path d="M1557.7 343.36L1557.7 343.36" stroke="rgba(15, 55, 131, 0.51)" stroke-width="1.5"></path><path d="M1557.7 343.36L1564.77 532.44" stroke="rgba(15, 55, 131, 0.51)" stroke-width="1.5"></path><path d="M1557.7 343.36L1388.67 488.84" stroke="rgba(15, 55, 131, 0.51)" stroke-width="1.5"></path><path d="M1557.7 343.36L1591.45 67.13" stroke="rgba(15, 55, 131, 0.51)" stroke-width="1.5"></path><path d="M1564.77 532.44L1564.77 532.44" stroke="rgba(15, 55, 131, 0.51)" stroke-width="1.5"></path><path d="M1564.77 532.44L1572.4 695.82" stroke="rgba(15, 55, 131, 0.51)" stroke-width="1.5"></path><path d="M1564.77 532.44L1424.73 651.72" stroke="rgba(15, 55, 131, 0.51)" stroke-width="1.5"></path><path d="M1564.77 532.44L1436.29 384.14" stroke="rgba(15, 55, 131, 0.51)" stroke-width="1.5"></path><path d="M1572.4 695.82L1572.4 695.82" stroke="rgba(15, 55, 131, 0.51)" stroke-width="1.5"></path><path d="M1572.4 695.82L1388.67 488.84" stroke="rgba(15, 55, 131, 0.51)" stroke-width="1.5"></path><path d="M1572.4 695.82L1269.07 708.81" stroke="rgba(15, 55, 131, 0.51)" stroke-width="1.5"></path><circle r="5" cx="-78.29" cy="371.83" fill="rgba(15, 55, 131, 0.51)"></circle><circle r="5" cx="-103.06" cy="552.92" fill="rgba(15, 55, 131, 0.51)"></circle><circle r="5" cx="-74.91" cy="671.41" fill="rgba(15, 55, 131, 0.51)"></circle><circle r="5" cx="39.28" cy="349.15" fill="rgba(15, 55, 131, 0.51)"></circle><circle r="5" cx="65" cy="536.47" fill="rgba(15, 55, 131, 0.51)"></circle><circle r="5" cx="90.81" cy="660.99" fill="rgba(15, 55, 131, 0.51)"></circle><circle r="5" cx="224.49" cy="360.81" fill="rgba(15, 55, 131, 0.51)"></circle><circle r="5" cx="237.46" cy="535.71" fill="rgba(15, 55, 131, 0.51)"></circle><circle r="5" cx="252.24" cy="655.39" fill="rgba(15, 55, 131, 0.51)"></circle><circle r="5" cx="369.66" cy="374.61" fill="rgba(15, 55, 131, 0.51)"></circle><circle r="5" cx="402.89" cy="537.08" fill="rgba(15, 55, 131, 0.51)"></circle><circle r="5" cx="388.14" cy="689.54" fill="rgba(15, 55, 131, 0.51)"></circle><circle r="5" cx="514.19" cy="348.26" fill="rgba(15, 55, 131, 0.51)"></circle><circle r="5" cx="527.72" cy="528.66" fill="rgba(15, 55, 131, 0.51)"></circle><circle r="5" cx="543.57" cy="682.49" fill="rgba(15, 55, 131, 0.51)"></circle><circle r="5" cx="674.81" cy="255.34" fill="rgba(15, 55, 131, 0.51)"></circle><circle r="5" cx="685.19" cy="369.86" fill="rgba(15, 55, 131, 0.51)"></circle><circle r="5" cx="639.76" cy="507.3" fill="rgba(15, 55, 131, 0.51)"></circle><circle r="5" cx="681.93" cy="666.17" fill="rgba(15, 55, 131, 0.51)"></circle><circle r="5" cx="846.38" cy="248.89" fill="rgba(15, 55, 131, 0.51)"></circle><circle r="5" cx="850.56" cy="381.91" fill="rgba(15, 55, 131, 0.51)"></circle><circle r="5" cx="801.33" cy="549.13" fill="rgba(15, 55, 131, 0.51)"></circle><circle r="5" cx="805.75" cy="656.19" fill="rgba(15, 55, 131, 0.51)"></circle><circle r="5" cx="999.15" cy="-72.67" fill="rgba(15, 55, 131, 0.51)"></circle><circle r="5" cx="967.88" cy="85.65" fill="rgba(15, 55, 131, 0.51)"></circle><circle r="5" cx="951.98" cy="235.8" fill="rgba(15, 55, 131, 0.51)"></circle><circle r="5" cx="955.16" cy="384.73" fill="rgba(15, 55, 131, 0.51)"></circle><circle r="5" cx="949.71" cy="520.55" fill="rgba(15, 55, 131, 0.51)"></circle><circle r="5" cx="989.59" cy="695.77" fill="rgba(15, 55, 131, 0.51)"></circle><circle r="5" cx="1150.45" cy="-86.87" fill="rgba(15, 55, 131, 0.51)"></circle><circle r="5" cx="1106.97" cy="60.1" fill="rgba(15, 55, 131, 0.51)"></circle><circle r="5" cx="1114.76" cy="228.76" fill="rgba(15, 55, 131, 0.51)"></circle><circle r="5" cx="1153.77" cy="348.07" fill="rgba(15, 55, 131, 0.51)"></circle><circle r="5" cx="1120.32" cy="540.63" fill="rgba(15, 55, 131, 0.51)"></circle><circle r="5" cx="1152.76" cy="661.69" fill="rgba(15, 55, 131, 0.51)"></circle><circle r="5" cx="1248.14" cy="-73.52" fill="rgba(15, 55, 131, 0.51)"></circle><circle r="5" cx="1264.5" cy="53.38" fill="rgba(15, 55, 131, 0.51)"></circle><circle r="5" cx="1274.54" cy="338.74" fill="rgba(15, 55, 131, 0.51)"></circle><circle r="5" cx="1283.76" cy="542.33" fill="rgba(15, 55, 131, 0.51)"></circle><circle r="5" cx="1269.07" cy="708.81" fill="rgba(15, 55, 131, 0.51)"></circle><circle r="5" cx="1404.12" cy="-109.84" fill="rgba(15, 55, 131, 0.51)"></circle><circle r="5" cx="1394.2" cy="53.23" fill="rgba(15, 55, 131, 0.51)"></circle><circle r="5" cx="1401.67" cy="257.09" fill="rgba(15, 55, 131, 0.51)"></circle><circle r="5" cx="1436.29" cy="384.14" fill="rgba(15, 55, 131, 0.51)"></circle><circle r="5" cx="1388.67" cy="488.84" fill="rgba(15, 55, 131, 0.51)"></circle><circle r="5" cx="1424.73" cy="651.72" fill="rgba(15, 55, 131, 0.51)"></circle><circle r="5" cx="1596.64" cy="-53.21" fill="rgba(15, 55, 131, 0.51)"></circle><circle r="5" cx="1591.45" cy="67.13" fill="rgba(15, 55, 131, 0.51)"></circle><circle r="5" cx="1568.73" cy="223.94" fill="rgba(15, 55, 131, 0.51)"></circle><circle r="5" cx="1557.7" cy="343.36" fill="rgba(15, 55, 131, 0.51)"></circle><circle r="5" cx="1564.77" cy="532.44" fill="rgba(15, 55, 131, 0.51)"></circle><circle r="5" cx="1572.4" cy="695.82" fill="rgba(15, 55, 131, 0.51)"></circle><path d="M218.71 670.89L218.71 670.89" stroke="hsl(193, 80.8%, 45.1%)" stroke-width="1.5"></path><path d="M218.71 670.89L112.23 707" stroke="hsl(193, 80.8%, 45.1%)" stroke-width="1.5"></path><path d="M218.71 670.89L213.6 495.58" stroke="hsl(193, 80.8%, 45.1%)" stroke-width="1.5"></path><path d="M218.71 670.89L109.1 506.52" stroke="hsl(193, 80.8%, 45.1%)" stroke-width="1.5"></path><path d="M218.71 670.89L369.7 496.31" stroke="hsl(193, 80.8%, 45.1%)" stroke-width="1.5"></path><path d="M369.7 496.31L369.7 496.31" stroke="hsl(193, 80.8%, 45.1%)" stroke-width="1.5"></path><path d="M369.7 496.31L213.6 495.58" stroke="hsl(193, 80.8%, 45.1%)" stroke-width="1.5"></path><path d="M369.7 496.31L509.38 659.99" stroke="hsl(193, 80.8%, 45.1%)" stroke-width="1.5"></path><path d="M369.7 496.31L109.1 506.52" stroke="hsl(193, 80.8%, 45.1%)" stroke-width="1.5"></path><path d="M369.7 496.31L699.93 502.99" stroke="hsl(193, 80.8%, 45.1%)" stroke-width="1.5"></path><path d="M1105.78 223.18L1105.78 223.18" stroke="hsl(193, 80.8%, 45.1%)" stroke-width="1.5"></path><path d="M1105.78 223.18L1144.11 366.83" stroke="hsl(193, 80.8%, 45.1%)" stroke-width="1.5"></path><path d="M1105.78 223.18L1267.74 242.6" stroke="hsl(193, 80.8%, 45.1%)" stroke-width="1.5"></path><path d="M1105.78 223.18L1238.47 85.16" stroke="hsl(193, 80.8%, 45.1%)" stroke-width="1.5"></path><path d="M1105.78 223.18L953.52 348.02" stroke="hsl(193, 80.8%, 45.1%)" stroke-width="1.5"></path><path d="M1303.62 -79.12L1303.62 -79.12" stroke="hsl(193, 80.8%, 45.1%)" stroke-width="1.5"></path><path d="M1303.62 -79.12L1414.58 -86.08" stroke="hsl(193, 80.8%, 45.1%)" stroke-width="1.5"></path><path d="M1303.62 -79.12L1238.47 85.16" stroke="hsl(193, 80.8%, 45.1%)" stroke-width="1.5"></path><path d="M1274.69 348.9L1274.69 348.9" stroke="hsl(193, 80.8%, 45.1%)" stroke-width="1.5"></path><path d="M1274.69 348.9L1267.74 242.6" stroke="hsl(193, 80.8%, 45.1%)" stroke-width="1.5"></path><path d="M1274.69 348.9L1144.11 366.83" stroke="hsl(193, 80.8%, 45.1%)" stroke-width="1.5"></path><path d="M1274.69 348.9L1423.66 376.01" stroke="hsl(193, 80.8%, 45.1%)" stroke-width="1.5"></path><path d="M1274.69 348.9L1388.01 205.63" stroke="hsl(193, 80.8%, 45.1%)" stroke-width="1.5"></path><path d="M1586.23 251.95L1586.23 251.95" stroke="hsl(193, 80.8%, 45.1%)" stroke-width="1.5"></path><path d="M1586.23 251.95L1574.53 65.95" stroke="hsl(193, 80.8%, 45.1%)" stroke-width="1.5"></path><path d="M1586.23 251.95L1388.01 205.63" stroke="hsl(193, 80.8%, 45.1%)" stroke-width="1.5"></path><path d="M1586.23 251.95L1423.66 376.01" stroke="hsl(193, 80.8%, 45.1%)" stroke-width="1.5"></path><path d="M1586.23 251.95L1443.26 77.31" stroke="hsl(193, 80.8%, 45.1%)" stroke-width="1.5"></path><path d="M1586.23 251.95L1543.73 558.72" stroke="hsl(193, 80.8%, 45.1%)" stroke-width="1.5"></path><path d="M1567.9 647.84L1567.9 647.84" stroke="hsl(193, 80.8%, 45.1%)" stroke-width="1.5"></path><path d="M1567.9 647.84L1543.73 558.72" stroke="hsl(193, 80.8%, 45.1%)" stroke-width="1.5"></path><path d="M1567.9 647.84L1439.25 644.08" stroke="hsl(193, 80.8%, 45.1%)" stroke-width="1.5"></path><path d="M1567.9 647.84L1393.34 516.1" stroke="hsl(193, 80.8%, 45.1%)" stroke-width="1.5"></path><path d="M1567.9 647.84L1298.75 532.89" stroke="hsl(193, 80.8%, 45.1%)" stroke-width="1.5"></path><path d="M1567.9 647.84L1423.66 376.01" stroke="hsl(193, 80.8%, 45.1%)" stroke-width="1.5"></path><path d="M-77.97 513.4L-77.97 513.4" stroke="hsl(193, 80.8%, 45.1%)" stroke-width="1.5"></path><path d="M-77.97 513.4L-57.48 658.31" stroke="hsl(193, 80.8%, 45.1%)" stroke-width="1.5"></path><path d="M-57.48 658.31L-57.48 658.31" stroke="hsl(193, 80.8%, 45.1%)" stroke-width="1.5"></path><path d="M-57.48 658.31L112.23 707" stroke="hsl(193, 80.8%, 45.1%)" stroke-width="1.5"></path><path d="M-57.48 658.31L109.1 506.52" stroke="hsl(193, 80.8%, 45.1%)" stroke-width="1.5"></path><path d="M-57.48 658.31L218.71 670.89" stroke="hsl(193, 80.8%, 45.1%)" stroke-width="1.5"></path><path d="M109.1 506.52L109.1 506.52" stroke="hsl(193, 80.8%, 45.1%)" stroke-width="1.5"></path><path d="M109.1 506.52L213.6 495.58" stroke="hsl(193, 80.8%, 45.1%)" stroke-width="1.5"></path><path d="M109.1 506.52L-77.97 513.4" stroke="hsl(193, 80.8%, 45.1%)" stroke-width="1.5"></path><path d="M112.23 707L112.23 707" stroke="hsl(193, 80.8%, 45.1%)" stroke-width="1.5"></path><path d="M112.23 707L109.1 506.52" stroke="hsl(193, 80.8%, 45.1%)" stroke-width="1.5"></path><path d="M112.23 707L213.6 495.58" stroke="hsl(193, 80.8%, 45.1%)" stroke-width="1.5"></path><path d="M112.23 707L-77.97 513.4" stroke="hsl(193, 80.8%, 45.1%)" stroke-width="1.5"></path><path d="M112.23 707L369.7 496.31" stroke="hsl(193, 80.8%, 45.1%)" stroke-width="1.5"></path><path d="M213.6 495.58L213.6 495.58" stroke="hsl(193, 80.8%, 45.1%)" stroke-width="1.5"></path><path d="M509.38 659.99L509.38 659.99" stroke="hsl(193, 80.8%, 45.1%)" stroke-width="1.5"></path><path d="M509.38 659.99L704.68 652.59" stroke="hsl(193, 80.8%, 45.1%)" stroke-width="1.5"></path><path d="M509.38 659.99L699.93 502.99" stroke="hsl(193, 80.8%, 45.1%)" stroke-width="1.5"></path><path d="M509.38 659.99L795.81 661.45" stroke="hsl(193, 80.8%, 45.1%)" stroke-width="1.5"></path><path d="M509.38 659.99L218.71 670.89" stroke="hsl(193, 80.8%, 45.1%)" stroke-width="1.5"></path><path d="M509.38 659.99L213.6 495.58" stroke="hsl(193, 80.8%, 45.1%)" stroke-width="1.5"></path><path d="M699.93 502.99L699.93 502.99" stroke="hsl(193, 80.8%, 45.1%)" stroke-width="1.5"></path><path d="M699.93 502.99L811.45 496.23" stroke="hsl(193, 80.8%, 45.1%)" stroke-width="1.5"></path><path d="M699.93 502.99L704.68 652.59" stroke="hsl(193, 80.8%, 45.1%)" stroke-width="1.5"></path><path d="M704.68 652.59L704.68 652.59" stroke="hsl(193, 80.8%, 45.1%)" stroke-width="1.5"></path><path d="M704.68 652.59L795.81 661.45" stroke="hsl(193, 80.8%, 45.1%)" stroke-width="1.5"></path><path d="M704.68 652.59L811.45 496.23" stroke="hsl(193, 80.8%, 45.1%)" stroke-width="1.5"></path><path d="M825.31 362.05L825.31 362.05" stroke="hsl(193, 80.8%, 45.1%)" stroke-width="1.5"></path><path d="M825.31 362.05L953.52 348.02" stroke="hsl(193, 80.8%, 45.1%)" stroke-width="1.5"></path><path d="M825.31 362.05L811.45 496.23" stroke="hsl(193, 80.8%, 45.1%)" stroke-width="1.5"></path><path d="M825.31 362.05L943.17 506.94" stroke="hsl(193, 80.8%, 45.1%)" stroke-width="1.5"></path><path d="M811.45 496.23L811.45 496.23" stroke="hsl(193, 80.8%, 45.1%)" stroke-width="1.5"></path><path d="M811.45 496.23L943.17 506.94" stroke="hsl(193, 80.8%, 45.1%)" stroke-width="1.5"></path><path d="M811.45 496.23L795.81 661.45" stroke="hsl(193, 80.8%, 45.1%)" stroke-width="1.5"></path><path d="M795.81 661.45L795.81 661.45" stroke="hsl(193, 80.8%, 45.1%)" stroke-width="1.5"></path><path d="M795.81 661.45L699.93 502.99" stroke="hsl(193, 80.8%, 45.1%)" stroke-width="1.5"></path><path d="M795.81 661.45L990.17 637.9" stroke="hsl(193, 80.8%, 45.1%)" stroke-width="1.5"></path><path d="M795.81 661.45L943.17 506.94" stroke="hsl(193, 80.8%, 45.1%)" stroke-width="1.5"></path><path d="M953.52 348.02L953.52 348.02" stroke="hsl(193, 80.8%, 45.1%)" stroke-width="1.5"></path><path d="M953.52 348.02L943.17 506.94" stroke="hsl(193, 80.8%, 45.1%)" stroke-width="1.5"></path><path d="M953.52 348.02L1144.11 366.83" stroke="hsl(193, 80.8%, 45.1%)" stroke-width="1.5"></path><path d="M953.52 348.02L811.45 496.23" stroke="hsl(193, 80.8%, 45.1%)" stroke-width="1.5"></path><path d="M953.52 348.02L1131.91 488.65" stroke="hsl(193, 80.8%, 45.1%)" stroke-width="1.5"></path><path d="M943.17 506.94L943.17 506.94" stroke="hsl(193, 80.8%, 45.1%)" stroke-width="1.5"></path><path d="M943.17 506.94L990.17 637.9" stroke="hsl(193, 80.8%, 45.1%)" stroke-width="1.5"></path><path d="M943.17 506.94L1131.91 488.65" stroke="hsl(193, 80.8%, 45.1%)" stroke-width="1.5"></path><path d="M990.17 637.9L990.17 637.9" stroke="hsl(193, 80.8%, 45.1%)" stroke-width="1.5"></path><path d="M990.17 637.9L1130.52 692.88" stroke="hsl(193, 80.8%, 45.1%)" stroke-width="1.5"></path><path d="M990.17 637.9L1131.91 488.65" stroke="hsl(193, 80.8%, 45.1%)" stroke-width="1.5"></path><path d="M1144.11 366.83L1144.11 366.83" stroke="hsl(193, 80.8%, 45.1%)" stroke-width="1.5"></path><path d="M1144.11 366.83L1131.91 488.65" stroke="hsl(193, 80.8%, 45.1%)" stroke-width="1.5"></path><path d="M1144.11 366.83L1267.74 242.6" stroke="hsl(193, 80.8%, 45.1%)" stroke-width="1.5"></path><path d="M1131.91 488.65L1131.91 488.65" stroke="hsl(193, 80.8%, 45.1%)" stroke-width="1.5"></path><path d="M1131.91 488.65L1298.75 532.89" stroke="hsl(193, 80.8%, 45.1%)" stroke-width="1.5"></path><path d="M1131.91 488.65L1274.69 348.9" stroke="hsl(193, 80.8%, 45.1%)" stroke-width="1.5"></path><path d="M1131.91 488.65L1130.52 692.88" stroke="hsl(193, 80.8%, 45.1%)" stroke-width="1.5"></path><path d="M1130.52 692.88L1130.52 692.88" stroke="hsl(193, 80.8%, 45.1%)" stroke-width="1.5"></path><path d="M1130.52 692.88L1298.75 532.89" stroke="hsl(193, 80.8%, 45.1%)" stroke-width="1.5"></path><path d="M1130.52 692.88L943.17 506.94" stroke="hsl(193, 80.8%, 45.1%)" stroke-width="1.5"></path><path d="M1238.47 85.16L1238.47 85.16" stroke="hsl(193, 80.8%, 45.1%)" stroke-width="1.5"></path><path d="M1238.47 85.16L1267.74 242.6" stroke="hsl(193, 80.8%, 45.1%)" stroke-width="1.5"></path><path d="M1238.47 85.16L1388.01 205.63" stroke="hsl(193, 80.8%, 45.1%)" stroke-width="1.5"></path><path d="M1267.74 242.6L1267.74 242.6" stroke="hsl(193, 80.8%, 45.1%)" stroke-width="1.5"></path><path d="M1267.74 242.6L1388.01 205.63" stroke="hsl(193, 80.8%, 45.1%)" stroke-width="1.5"></path><path d="M1298.75 532.89L1298.75 532.89" stroke="hsl(193, 80.8%, 45.1%)" stroke-width="1.5"></path><path d="M1298.75 532.89L1393.34 516.1" stroke="hsl(193, 80.8%, 45.1%)" stroke-width="1.5"></path><path d="M1298.75 532.89L1439.25 644.08" stroke="hsl(193, 80.8%, 45.1%)" stroke-width="1.5"></path><path d="M1298.75 532.89L1274.69 348.9" stroke="hsl(193, 80.8%, 45.1%)" stroke-width="1.5"></path><path d="M1298.75 532.89L1423.66 376.01" stroke="hsl(193, 80.8%, 45.1%)" stroke-width="1.5"></path><path d="M1414.58 -86.08L1414.58 -86.08" stroke="hsl(193, 80.8%, 45.1%)" stroke-width="1.5"></path><path d="M1414.58 -86.08L1562.92 -94.3" stroke="hsl(193, 80.8%, 45.1%)" stroke-width="1.5"></path><path d="M1414.58 -86.08L1443.26 77.31" stroke="hsl(193, 80.8%, 45.1%)" stroke-width="1.5"></path><path d="M1414.58 -86.08L1574.53 65.95" stroke="hsl(193, 80.8%, 45.1%)" stroke-width="1.5"></path><path d="M1443.26 77.31L1443.26 77.31" stroke="hsl(193, 80.8%, 45.1%)" stroke-width="1.5"></path><path d="M1443.26 77.31L1574.53 65.95" stroke="hsl(193, 80.8%, 45.1%)" stroke-width="1.5"></path><path d="M1443.26 77.31L1388.01 205.63" stroke="hsl(193, 80.8%, 45.1%)" stroke-width="1.5"></path><path d="M1443.26 77.31L1238.47 85.16" stroke="hsl(193, 80.8%, 45.1%)" stroke-width="1.5"></path><path d="M1443.26 77.31L1562.92 -94.3" stroke="hsl(193, 80.8%, 45.1%)" stroke-width="1.5"></path><path d="M1388.01 205.63L1388.01 205.63" stroke="hsl(193, 80.8%, 45.1%)" stroke-width="1.5"></path><path d="M1388.01 205.63L1423.66 376.01" stroke="hsl(193, 80.8%, 45.1%)" stroke-width="1.5"></path><path d="M1423.66 376.01L1423.66 376.01" stroke="hsl(193, 80.8%, 45.1%)" stroke-width="1.5"></path><path d="M1423.66 376.01L1393.34 516.1" stroke="hsl(193, 80.8%, 45.1%)" stroke-width="1.5"></path><path d="M1393.34 516.1L1393.34 516.1" stroke="hsl(193, 80.8%, 45.1%)" stroke-width="1.5"></path><path d="M1393.34 516.1L1439.25 644.08" stroke="hsl(193, 80.8%, 45.1%)" stroke-width="1.5"></path><path d="M1439.25 644.08L1439.25 644.08" stroke="hsl(193, 80.8%, 45.1%)" stroke-width="1.5"></path><path d="M1439.25 644.08L1543.73 558.72" stroke="hsl(193, 80.8%, 45.1%)" stroke-width="1.5"></path><path d="M1562.92 -94.3L1562.92 -94.3" stroke="hsl(193, 80.8%, 45.1%)" stroke-width="1.5"></path><path d="M1562.92 -94.3L1574.53 65.95" stroke="hsl(193, 80.8%, 45.1%)" stroke-width="1.5"></path><path d="M1562.92 -94.3L1303.62 -79.12" stroke="hsl(193, 80.8%, 45.1%)" stroke-width="1.5"></path><path d="M1574.53 65.95L1574.53 65.95" stroke="hsl(193, 80.8%, 45.1%)" stroke-width="1.5"></path><path d="M1574.53 65.95L1388.01 205.63" stroke="hsl(193, 80.8%, 45.1%)" stroke-width="1.5"></path><path d="M1543.73 558.72L1543.73 558.72" stroke="hsl(193, 80.8%, 45.1%)" stroke-width="1.5"></path><path d="M1543.73 558.72L1393.34 516.1" stroke="hsl(193, 80.8%, 45.1%)" stroke-width="1.5"></path><path d="M1543.73 558.72L1423.66 376.01" stroke="hsl(193, 80.8%, 45.1%)" stroke-width="1.5"></path><path d="M1543.73 558.72L1298.75 532.89" stroke="hsl(193, 80.8%, 45.1%)" stroke-width="1.5"></path><circle r="25" cx="218.71" cy="670.89" fill="url(&quot;#SvgjsRadialGradient4467&quot;)"></circle><circle r="25" cx="369.7" cy="496.31" fill="url(&quot;#SvgjsRadialGradient4467&quot;)"></circle><circle r="25" cx="1105.78" cy="223.18" fill="url(&quot;#SvgjsRadialGradient4467&quot;)"></circle><circle r="25" cx="1303.62" cy="-79.12" fill="url(&quot;#SvgjsRadialGradient4467&quot;)"></circle><circle r="25" cx="1274.69" cy="348.9" fill="url(&quot;#SvgjsRadialGradient4467&quot;)"></circle><circle r="25" cx="1586.23" cy="251.95" fill="url(&quot;#SvgjsRadialGradient4467&quot;)"></circle><circle r="25" cx="1567.9" cy="647.84" fill="url(&quot;#SvgjsRadialGradient4467&quot;)"></circle><circle r="5" cx="-77.97" cy="513.4" fill="#88c0d0"></circle><circle r="5" cx="-57.48" cy="658.31" fill="#88c0d0"></circle><circle r="5" cx="109.1" cy="506.52" fill="#88c0d0"></circle><circle r="5" cx="112.23" cy="707" fill="#88c0d0"></circle><circle r="5" cx="213.6" cy="495.58" fill="#88c0d0"></circle><circle r="5" cx="509.38" cy="659.99" fill="#88c0d0"></circle><circle r="5" cx="699.93" cy="502.99" fill="#88c0d0"></circle><circle r="5" cx="704.68" cy="652.59" fill="#88c0d0"></circle><circle r="5" cx="825.31" cy="362.05" fill="#88c0d0"></circle><circle r="5" cx="811.45" cy="496.23" fill="#88c0d0"></circle><circle r="5" cx="795.81" cy="661.45" fill="#88c0d0"></circle><circle r="5" cx="953.52" cy="348.02" fill="#88c0d0"></circle><circle r="5" cx="943.17" cy="506.94" fill="#88c0d0"></circle><circle r="5" cx="990.17" cy="637.9" fill="#88c0d0"></circle><circle r="5" cx="1144.11" cy="366.83" fill="#88c0d0"></circle><circle r="5" cx="1131.91" cy="488.65" fill="#88c0d0"></circle><circle r="5" cx="1130.52" cy="692.88" fill="#88c0d0"></circle><circle r="5" cx="1238.47" cy="85.16" fill="#88c0d0"></circle><circle r="5" cx="1267.74" cy="242.6" fill="#88c0d0"></circle><circle r="5" cx="1298.75" cy="532.89" fill="#88c0d0"></circle><circle r="5" cx="1414.58" cy="-86.08" fill="#88c0d0"></circle><circle r="5" cx="1443.26" cy="77.31" fill="#88c0d0"></circle><circle r="5" cx="1388.01" cy="205.63" fill="#88c0d0"></circle><circle r="5" cx="1423.66" cy="376.01" fill="#88c0d0"></circle><circle r="5" cx="1393.34" cy="516.1" fill="#88c0d0"></circle><circle r="5" cx="1439.25" cy="644.08" fill="#88c0d0"></circle><circle r="5" cx="1562.92" cy="-94.3" fill="#88c0d0"></circle><circle r="5" cx="1574.53" cy="65.95" fill="#88c0d0"></circle><circle r="5" cx="1543.73" cy="558.72" fill="#88c0d0"></circle></g><defs><mask id="SvgjsMask4465"><rect width="1440" height="560" fill="#ffffff"></rect></mask><radialGradient cx="0%" cy="50%" r="1466.97" gradientUnits="userSpaceOnUse" id="SvgjsRadialGradient4466"><stop stop-color="rgba(18, 83, 103, 0.92)" offset="0.43"></stop><stop stop-color="rgba(9, 47, 73, 1)" offset="0.78"></stop></radialGradient><radialGradient id="SvgjsRadialGradient4467"><stop stop-color="#ffffff" offset="0.1"></stop><stop stop-color="rgba(17, 129, 160, 1)" offset="0.2"></stop><stop stop-color="rgba(17, 129, 160, 0)" offset="1"></stop></radialGradient></defs></svg>